{
  "source": "C:\\Users\\Peter\\Desktop\\stuff\\MIUN\\quantitative_research\\video_compression\\videos\\UVG\\ReadySteadyGo_1920x1080_120fps_420_8bit_YUV.y4m",
  "output": "C:\\Users\\Peter\\Desktop\\stuff\\MIUN\\quantitative_research\\video_compression\\compressed_videos\\UVG\\av1\\1.5\\ReadySteadyGo_1920x1080_120fps_420_8bit_YUV_av1.mkv",
  "codec": "av1",
  "ok": "[yuv4mpegpipe @ 000002010a2754c0] Stream #0: not enough frames to estimate rate; consider increasing probesize\nInput #0, yuv4mpegpipe, from 'C:\\Users\\Peter\\Desktop\\stuff\\MIUN\\quantitative_research\\video_compression\\videos\\UVG\\ReadySteadyGo_1920x1080_120fps_420_8bit_YUV.y4m':\n  Duration: 00:00:05.00, start: 0.000000, bitrate: 2985989 kb/s\n  Stream #0:0: Video: rawvideo (I420 / 0x30323449), yuv420p(progressive), 1920x1080, 120 fps, 120 tbr, 120 tbn\n[out#0/matroska @ 000002010a279200] Codec AVOption b:a (set bitrate (in bits/s)) has not been used for any stream. The most likely reason is either wrong type (e.g. a video option with no video streams) or that it is a private option of some decoder which was not actually used for any stream.\nStream mapping:\n  Stream #0:0 -> #0:0 (rawvideo (native) -> av1 (libsvtav1))\nPress [q] to stop, [?] for help\nSvt[info]: -------------------------------------------\nSvt[info]: SVT [version]:\tSVT-AV1 Encoder Lib v3.1.0-19-g6ecfe8ec\nSvt[info]: SVT [build]  :\tGCC 15.2.0\t 64 bit\nSvt[info]: LIB Build date: Aug 17 2025 11:37:13\nSvt[info]: -------------------------------------------\n[libsvtav1 @ 000002010a27bb40] Specified chroma sample location center is unsupported on the AV1 bit stream level. Usage of a container that allows passing this information - such as Matroska - is recommended.\nSvt[info]: Level of Parallelism: 5\nSvt[info]: Number of PPCS 93\nSvt[info]: [asm level on system : up to avx2]\nSvt[info]: [asm level selected : up to avx2]\nSvt[info]: -------------------------------------------\nSvt[info]: SVT [config]: main profile\ttier (auto)\tlevel (auto)\nSvt[info]: SVT [config]: width / height / fps numerator / fps denominator \t\t: 1920 / 1080 / 120 / 1\nSvt[info]: SVT [config]: bit-depth / color format \t\t\t\t\t: 8 / YUV420\nSvt[info]: SVT [config]: preset / tune / pred struct \t\t\t\t\t: 4 / PSNR / random access\nSvt[info]: SVT [config]: gop size / mini-gop size / key-frame type \t\t\t: 641 / 16 / key frame\nSvt[info]: SVT [config]: BRC mode / target bitrate (kbps)\t\t\t\t: VBR / 1500 \nSvt[info]: SVT [config]: AQ mode / Variance Boost \t\t\t\t\t: 2 / 0\nSvt[info]: SVT [config]: sharpness / luminance-based QP bias \t\t\t\t: 0 / 0\nSvt[info]: SVT [config]: QP scale compress strength \t\t\t\t\t: 0\nSvt[info]: -------------------------------------------\nOutput #0, matroska, to 'C:\\Users\\Peter\\Desktop\\stuff\\MIUN\\quantitative_research\\video_compression\\compressed_videos\\UVG\\av1\\1.5\\ReadySteadyGo_1920x1080_120fps_420_8bit_YUV_av1.mkv':\n  Metadata:\n    encoder         : Lavf62.3.100\n  Stream #0:0: Video: av1 (AV01 / 0x31305641), yuv420p(tv, progressive), 1920x1080, q=2-31, 1500 kb/s, 120 fps, 1k tbn\n    Metadata:\n      encoder         : Lavc62.11.100 libsvtav1\n    Side data:\n      cpb: bitrate max/min/avg: 0/0/1500000 buffer size: 1500000 vbv_delay: N/A\nframe=    0 fps=0.0 q=0.0 size=       0KiB time=N/A bitrate=N/A speed=N/A elapsed=0:00:04.39    \nframe=    0 fps=0.0 q=0.0 size=       0KiB time=N/A bitrate=N/A speed=N/A elapsed=0:00:05.11    \nframe=    0 fps=0.0 q=0.0 size=       0KiB time=N/A bitrate=N/A speed=N/A elapsed=0:00:05.66    \nframe=    0 fps=0.0 q=0.0 size=       0KiB time=N/A bitrate=N/A speed=N/A elapsed=0:00:06.20    \nframe=    0 fps=0.0 q=0.0 size=       0KiB time=N/A bitrate=N/A speed=N/A elapsed=0:00:06.76    \nframe=    0 fps=0.0 q=0.0 size=       0KiB time=N/A bitrate=N/A speed=N/A elapsed=0:00:07.35    \nframe=    0 fps=0.0 q=0.0 size=       0KiB time=N/A bitrate=N/A speed=N/A elapsed=0:00:07.91    \nframe=    0 fps=0.0 q=0.0 size=       0KiB time=N/A bitrate=N/A speed=N/A elapsed=0:00:08.47    \nframe=    0 fps=0.0 q=0.0 size=       0KiB time=N/A bitrate=N/A speed=N/A elapsed=0:00:09.04    \nframe=    0 fps=0.0 q=0.0 size=       0KiB time=N/A bitrate=N/A speed=N/A elapsed=0:00:09.61    \nframe=    0 fps=0.0 q=0.0 size=       0KiB time=N/A bitrate=N/A speed=N/A elapsed=0:00:10.19    \nframe=    0 fps=0.0 q=0.0 size=       0KiB time=N/A bitrate=N/A speed=N/A elapsed=0:00:10.77    \nframe=    0 fps=0.0 q=0.0 size=       0KiB time=N/A bitrate=N/A speed=N/A elapsed=0:00:11.38    \nframe=    0 fps=0.0 q=0.0 size=       0KiB time=N/A bitrate=N/A speed=N/A elapsed=0:00:11.97    \nframe=    0 fps=0.0 q=0.0 size=       0KiB time=N/A bitrate=N/A speed=N/A elapsed=0:00:12.55    \nframe=    0 fps=0.0 q=0.0 size=       0KiB time=N/A bitrate=N/A speed=N/A elapsed=0:00:13.11    \nframe=    0 fps=0.0 q=0.0 size=       0KiB time=N/A bitrate=N/A speed=N/A elapsed=0:00:13.68    \nframe=    0 fps=0.0 q=0.0 size=       0KiB time=N/A bitrate=N/A speed=N/A elapsed=0:00:14.25    \nframe=    0 fps=0.0 q=0.0 size=       0KiB time=N/A bitrate=N/A speed=N/A elapsed=0:00:14.85    \nframe=    0 fps=0.0 q=0.0 size=       0KiB time=N/A bitrate=N/A speed=N/A elapsed=0:00:15.42    \nframe=    0 fps=0.0 q=0.0 size=       0KiB time=N/A bitrate=N/A speed=N/A elapsed=0:00:15.99    \nframe=    0 fps=0.0 q=0.0 size=       0KiB time=N/A bitrate=N/A speed=N/A elapsed=0:00:16.56    \nframe=    0 fps=0.0 q=0.0 size=       0KiB time=N/A bitrate=N/A speed=N/A elapsed=0:00:17.14    \nframe=    0 fps=0.0 q=0.0 size=       0KiB time=N/A bitrate=N/A speed=N/A elapsed=0:00:17.70    \nframe=    0 fps=0.0 q=0.0 size=       0KiB time=N/A bitrate=N/A speed=N/A elapsed=0:00:18.27    \nframe=    0 fps=0.0 q=0.0 size=       0KiB time=N/A bitrate=N/A speed=N/A elapsed=0:00:18.82    \nframe=    0 fps=0.0 q=0.0 size=       0KiB time=N/A bitrate=N/A speed=N/A elapsed=0:00:19.36    \nframe=    0 fps=0.0 q=0.0 size=       0KiB time=N/A bitrate=N/A speed=N/A elapsed=0:00:19.92    \nframe=    0 fps=0.0 q=0.0 size=       0KiB time=N/A bitrate=N/A speed=N/A elapsed=0:00:20.48    \nframe=    0 fps=0.0 q=0.0 size=       0KiB time=N/A bitrate=N/A speed=N/A elapsed=0:00:21.06    \nframe=    0 fps=0.0 q=0.0 size=       0KiB time=N/A bitrate=N/A speed=N/A elapsed=0:00:21.62    \nframe=    0 fps=0.0 q=0.0 size=       0KiB time=N/A bitrate=N/A speed=N/A elapsed=0:00:22.19    \nframe=    0 fps=0.0 q=0.0 size=       0KiB time=N/A bitrate=N/A speed=N/A elapsed=0:00:22.76    \nframe=    0 fps=0.0 q=0.0 size=       0KiB time=N/A bitrate=N/A speed=N/A elapsed=0:00:23.32    \nframe=    0 fps=0.0 q=0.0 size=       0KiB time=N/A bitrate=N/A speed=N/A elapsed=0:00:23.89    \nframe=    1 fps=0.0 q=35.0 size=       1KiB time=00:00:00.00 bitrate=N/A speed=   0x elapsed=0:00:24.46    \nframe=    1 fps=0.0 q=35.0 size=       1KiB time=00:00:00.00 bitrate=N/A speed=   0x elapsed=0:00:25.05    \nframe=    1 fps=0.0 q=35.0 size=       1KiB time=00:00:00.00 bitrate=N/A speed=   0x elapsed=0:00:25.64    \nframe=    1 fps=0.0 q=35.0 size=       1KiB time=00:00:00.00 bitrate=N/A speed=   0x elapsed=0:00:26.21    \nframe=    1 fps=0.0 q=35.0 size=       1KiB time=00:00:00.00 bitrate=N/A speed=   0x elapsed=0:00:26.79    \nframe=    1 fps=0.0 q=35.0 size=       1KiB time=00:00:00.00 bitrate=N/A speed=   0x elapsed=0:00:27.35    \nframe=    1 fps=0.0 q=35.0 size=       1KiB time=00:00:00.00 bitrate=N/A speed=   0x elapsed=0:00:27.89    \nframe=    1 fps=0.0 q=35.0 size=       1KiB time=00:00:00.00 bitrate=N/A speed=   0x elapsed=0:00:28.44    \nframe=    1 fps=0.0 q=35.0 size=       1KiB time=00:00:00.00 bitrate=N/A speed=   0x elapsed=0:00:29.00    \nframe=    1 fps=0.0 q=35.0 size=       1KiB time=00:00:00.00 bitrate=N/A speed=   0x elapsed=0:00:29.57    \nframe=    3 fps=0.1 q=58.0 size=       1KiB time=00:00:00.01 bitrate= 268.8kbits/s speed=0.000553x elapsed=0:00:30.13    \nframe=    3 fps=0.1 q=58.0 size=       1KiB time=00:00:00.01 bitrate= 268.8kbits/s speed=0.000543x elapsed=0:00:30.69    \nframe=    4 fps=0.1 q=61.0 size=       1KiB time=00:00:00.02 bitrate= 179.2kbits/s speed=0.0008x elapsed=0:00:31.25    \nframe=    5 fps=0.2 q=57.0 size=       1KiB time=00:00:00.03 bitrate= 134.4kbits/s speed=0.00105x elapsed=0:00:31.84    \nframe=    6 fps=0.2 q=57.0 size=       1KiB time=00:00:00.04 bitrate= 107.5kbits/s speed=0.00129x elapsed=0:00:32.41    \nframe=    7 fps=0.2 q=57.0 size=       1KiB time=00:00:00.05 bitrate=  89.6kbits/s speed=0.00152x elapsed=0:00:32.99    \nframe=    7 fps=0.2 q=57.0 size=       1KiB time=00:00:00.05 bitrate=  89.6kbits/s speed=0.00149x elapsed=0:00:33.55    \nframe=    8 fps=0.2 q=57.0 size=       1KiB time=00:00:00.05 bitrate=  76.8kbits/s speed=0.00171x elapsed=0:00:34.10    \nframe=    9 fps=0.3 q=54.0 size=       1KiB time=00:00:00.06 bitrate=  67.2kbits/s speed=0.00192x elapsed=0:00:34.68    \nframe=   11 fps=0.3 q=57.0 size=       1KiB time=00:00:00.08 bitrate=  53.8kbits/s speed=0.00236x elapsed=0:00:35.24    \nframe=   11 fps=0.3 q=57.0 size=       1KiB time=00:00:00.08 bitrate=  53.8kbits/s speed=0.00233x elapsed=0:00:35.82    \nframe=   13 fps=0.4 q=56.0 size=       1KiB time=00:00:00.10 bitrate=  44.8kbits/s speed=0.00275x elapsed=0:00:36.40    \nframe=   14 fps=0.4 q=54.0 size=       1KiB time=00:00:00.10 bitrate=  44.8kbits/s speed=0.0027x elapsed=0:00:36.97    \nframe=   14 fps=0.4 q=54.0 size=       1KiB time=00:00:00.10 bitrate=  41.4kbits/s speed=0.00288x elapsed=0:00:37.58    \nframe=   16 fps=0.4 q=54.0 size=       1KiB time=00:00:00.12 bitrate=  35.8kbits/s speed=0.00328x elapsed=0:00:38.15    \nframe=   17 fps=0.4 q=45.0 size=       1KiB time=00:00:00.12 bitrate=  35.8kbits/s speed=0.00323x elapsed=0:00:38.71    \nframe=   18 fps=0.5 q=53.0 size=       1KiB time=00:00:00.13 bitrate=  33.6kbits/s speed=0.00339x elapsed=0:00:39.29    \nframe=   19 fps=0.5 q=56.0 size=       1KiB time=00:00:00.15 bitrate=  29.9kbits/s speed=0.00376x elapsed=0:00:39.86    \nframe=   20 fps=0.5 q=53.0 size=       1KiB time=00:00:00.15 bitrate=  29.9kbits/s speed=0.00371x elapsed=0:00:40.43    \nframe=   20 fps=0.5 q=53.0 size=       1KiB time=00:00:00.15 bitrate=  28.3kbits/s speed=0.00386x elapsed=0:00:41.02    \nframe=   21 fps=0.5 q=56.0 size=       1KiB time=00:00:00.15 bitrate=  28.3kbits/s speed=0.00381x elapsed=0:00:41.59    \nframe=   22 fps=0.5 q=53.0 size=       1KiB time=00:00:00.17 bitrate=  25.6kbits/s speed=0.00415x elapsed=0:00:42.15    \nframe=   23 fps=0.5 q=56.0 size=       1KiB time=00:00:00.17 bitrate=  25.6kbits/s speed=0.00409x elapsed=0:00:42.74    \nframe=   23 fps=0.5 q=56.0 size=       1KiB time=00:00:00.18 bitrate=  24.4kbits/s speed=0.00423x elapsed=0:00:43.32    \nframe=   23 fps=0.5 q=56.0 size=       1KiB time=00:00:00.18 bitrate=  24.4kbits/s speed=0.00418x elapsed=0:00:43.90    \nframe=   24 fps=0.5 q=55.0 size=       1KiB time=00:00:00.19 bitrate=  23.4kbits/s speed=0.00431x elapsed=0:00:44.49    \nframe=   24 fps=0.5 q=55.0 size=       1KiB time=00:00:00.19 bitrate=  23.4kbits/s speed=0.00425x elapsed=0:00:45.07    \nframe=   25 fps=0.5 q=53.0 size=       1KiB time=00:00:00.20 bitrate=  22.4kbits/s speed=0.00438x elapsed=0:00:45.67    \nframe=   26 fps=0.6 q=55.0 size=       1KiB time=00:00:00.20 bitrate=  22.4kbits/s speed=0.00432x elapsed=0:00:46.26    \nframe=   26 fps=0.6 q=55.0 size=       1KiB time=00:00:00.20 bitrate=  21.5kbits/s speed=0.00444x elapsed=0:00:46.87    \nframe=   27 fps=0.6 q=56.0 size=       1KiB time=00:00:00.21 bitrate=  20.7kbits/s speed=0.00457x elapsed=0:00:47.45    \nframe=   27 fps=0.6 q=56.0 size=       1KiB time=00:00:00.21 bitrate=  20.7kbits/s speed=0.00451x elapsed=0:00:48.03    \nframe=   28 fps=0.6 q=55.0 size=       1KiB time=00:00:00.22 bitrate=  19.9kbits/s speed=0.00463x elapsed=0:00:48.60    \nframe=   29 fps=0.6 q=53.0 size=       1KiB time=00:00:00.23 bitrate=  19.2kbits/s speed=0.00474x elapsed=0:00:49.18    \nframe=   30 fps=0.6 q=55.0 size=       1KiB time=00:00:00.24 bitrate=  18.5kbits/s speed=0.00486x elapsed=0:00:49.76    \nframe=   30 fps=0.6 q=55.0 size=       1KiB time=00:00:00.24 bitrate=  18.5kbits/s speed=0.0048x elapsed=0:00:50.34    \nframe=   31 fps=0.6 q=56.0 size=       1KiB time=00:00:00.25 bitrate=  17.9kbits/s speed=0.00491x elapsed=0:00:50.91    \nframe=   32 fps=0.6 q=55.0 size=       1KiB time=00:00:00.25 bitrate=  17.3kbits/s speed=0.00502x elapsed=0:00:51.47    \nframe=   33 fps=0.6 q=43.0 size=       1KiB time=00:00:00.26 bitrate=  16.8kbits/s speed=0.00513x elapsed=0:00:52.02    \nframe=   35 fps=0.7 q=56.0 size=       1KiB time=00:00:00.28 bitrate=  15.8kbits/s speed=0.00539x elapsed=0:00:52.58    \nframe=   36 fps=0.7 q=56.0 size=       1KiB time=00:00:00.28 bitrate=  15.8kbits/s speed=0.00533x elapsed=0:00:53.12    \nframe=   37 fps=0.7 q=55.0 size=       1KiB time=00:00:00.30 bitrate=  14.9kbits/s speed=0.00559x elapsed=0:00:53.67    \nframe=   38 fps=0.7 q=56.0 size=       1KiB time=00:00:00.30 bitrate=  14.5kbits/s speed=0.00569x elapsed=0:00:54.22    \nframe=   38 fps=0.7 q=56.0 size=       1KiB time=00:00:00.30 bitrate=  14.5kbits/s speed=0.00563x elapsed=0:00:54.77    \nframe=   39 fps=0.7 q=56.0 size=       1KiB time=00:00:00.31 bitrate=  14.1kbits/s speed=0.00572x elapsed=0:00:55.32    \nframe=   39 fps=0.7 q=56.0 size=       1KiB time=00:00:00.31 bitrate=  14.1kbits/s speed=0.00566x elapsed=0:00:55.91    \nframe=   40 fps=0.7 q=56.0 size=       1KiB time=00:00:00.32 bitrate=  13.8kbits/s speed=0.00576x elapsed=0:00:56.46    \nframe=   42 fps=0.7 q=56.0 size=       1KiB time=00:00:00.34 bitrate=  13.1kbits/s speed=0.00599x elapsed=0:00:57.01    \nframe=   43 fps=0.7 q=56.0 size=       1KiB time=00:00:00.35 bitrate=  12.8kbits/s speed=0.00608x elapsed=0:00:57.57    \nframe=   44 fps=0.8 q=54.0 size=       1KiB time=00:00:00.35 bitrate=  12.8kbits/s speed=0.00602x elapsed=0:00:58.16    \nframe=   45 fps=0.8 q=53.0 size=       1KiB time=00:00:00.36 bitrate=  12.2kbits/s speed=0.00624x elapsed=0:00:58.74    \nframe=   46 fps=0.8 q=56.0 size=       1KiB time=00:00:00.37 bitrate=  11.9kbits/s speed=0.00632x elapsed=0:00:59.35    \nframe=   47 fps=0.8 q=56.0 size=       1KiB time=00:00:00.38 bitrate=  11.7kbits/s speed=0.0064x elapsed=0:00:59.93    \nframe=   49 fps=0.8 q=38.0 size=       1KiB time=00:00:00.40 bitrate=  11.2kbits/s speed=0.00661x elapsed=0:01:00.51    \nframe=   50 fps=0.8 q=57.0 size=       1KiB time=00:00:00.40 bitrate=  11.0kbits/s speed=0.00668x elapsed=0:01:01.08    \nframe=   51 fps=0.8 q=57.0 size=       1KiB time=00:00:00.41 bitrate=  10.8kbits/s speed=0.00676x elapsed=0:01:01.64    \nframe=   54 fps=0.9 q=57.0 size=       1KiB time=00:00:00.44 bitrate=  10.1kbits/s speed=0.0071x elapsed=0:01:02.22    \nframe=   54 fps=0.9 q=57.0 size=       1KiB time=00:00:00.44 bitrate=  10.1kbits/s speed=0.00703x elapsed=0:01:02.79    \nframe=   55 fps=0.9 q=57.0 size=       1KiB time=00:00:00.45 bitrate=  10.0kbits/s speed=0.00711x elapsed=0:01:03.33    \nframe=   57 fps=0.9 q=52.0 size=       1KiB time=00:00:00.46 bitrate=   9.6kbits/s speed=0.00731x elapsed=0:01:03.87    \nframe=   59 fps=0.9 q=56.0 size=       1KiB time=00:00:00.48 bitrate=   9.3kbits/s speed=0.0075x elapsed=0:01:04.43    \nframe=   60 fps=0.9 q=56.0 size=       1KiB time=00:00:00.49 bitrate=   9.1kbits/s speed=0.00756x elapsed=0:01:05.02    \nframe=   62 fps=0.9 q=57.0 size=       1KiB time=00:00:00.50 bitrate=   8.8kbits/s speed=0.00775x elapsed=0:01:05.59    \nframe=   64 fps=1.0 q=57.0 size=       1KiB time=00:00:00.51 bitrate=   8.7kbits/s speed=0.00781x elapsed=0:01:06.14    \nframe=   65 fps=1.0 q=39.0 size=       1KiB time=00:00:00.53 bitrate=   8.4kbits/s speed=0.008x elapsed=0:01:06.69    \nframe=   66 fps=1.0 q=57.0 size=       1KiB time=00:00:00.54 bitrate=   8.3kbits/s speed=0.00806x elapsed=0:01:07.24    \nframe=   66 fps=1.0 q=57.0 size=       1KiB time=00:00:00.54 bitrate=   8.3kbits/s speed=0.00799x elapsed=0:01:07.80    \nframe=   68 fps=1.0 q=57.0 size=       1KiB time=00:00:00.55 bitrate=   8.0kbits/s speed=0.00817x elapsed=0:01:08.35    \nframe=   69 fps=1.0 q=55.0 size=       1KiB time=00:00:00.56 bitrate=   7.9kbits/s speed=0.00822x elapsed=0:01:08.93    \nframe=   70 fps=1.0 q=57.0 size=       1KiB time=00:00:00.57 bitrate=   7.8kbits/s speed=0.00827x elapsed=0:01:09.50    \nframe=   70 fps=1.0 q=57.0 size=       1KiB time=00:00:00.57 bitrate=   7.8kbits/s speed=0.0082x elapsed=0:01:10.08    \nframe=   70 fps=1.0 q=57.0 size=       1KiB time=00:00:00.57 bitrate=   7.8kbits/s speed=0.00814x elapsed=0:01:10.64    \nframe=   71 fps=1.0 q=57.0 size=       1KiB time=00:00:00.58 bitrate=   7.7kbits/s speed=0.00819x elapsed=0:01:11.18    \nframe=   71 fps=1.0 q=57.0 size=       1KiB time=00:00:00.58 bitrate=   7.7kbits/s speed=0.00813x elapsed=0:01:11.75    \nframe=   72 fps=1.0 q=51.0 size=       1KiB time=00:00:00.59 bitrate=   7.6kbits/s speed=0.00818x elapsed=0:01:12.32    \nframe=   74 fps=1.0 q=58.0 size=       1KiB time=00:00:00.60 bitrate=   7.4kbits/s speed=0.00835x elapsed=0:01:12.87    \nframe=   75 fps=1.0 q=57.0 size=       1KiB time=00:00:00.60 bitrate=   7.4kbits/s speed=0.00829x elapsed=0:01:13.42    \nframe=   75 fps=1.0 q=57.0 size=       1KiB time=00:00:00.61 bitrate=   7.3kbits/s speed=0.00834x elapsed=0:01:13.98    \nframe=   77 fps=1.0 q=54.0 size=       1KiB time=00:00:00.63 bitrate=   7.1kbits/s speed=0.0085x elapsed=0:01:14.53    \nframe=   79 fps=1.1 q=57.0 size=       1KiB time=00:00:00.65 bitrate=   6.9kbits/s speed=0.00866x elapsed=0:01:15.08    \nframe=   80 fps=1.1 q=59.0 size=       1KiB time=00:00:00.65 bitrate=   6.8kbits/s speed=0.0087x elapsed=0:01:15.64    \nframe=   83 fps=1.1 q=59.0 size=       1KiB time=00:00:00.68 bitrate=   6.6kbits/s speed=0.00897x elapsed=0:01:16.19    \nframe=   83 fps=1.1 q=59.0 size=       1KiB time=00:00:00.68 bitrate=   6.6kbits/s speed=0.0089x elapsed=0:01:16.74    \nframe=   83 fps=1.1 q=59.0 size=       1KiB time=00:00:00.68 bitrate=   6.6kbits/s speed=0.00884x elapsed=0:01:17.30    \nframe=   84 fps=1.1 q=60.0 size=       1KiB time=00:00:00.69 bitrate=   6.5kbits/s speed=0.00888x elapsed=0:01:17.88    \nframe=   84 fps=1.1 q=60.0 size=       1KiB time=00:00:00.69 bitrate=   6.5kbits/s speed=0.00881x elapsed=0:01:18.46    \nframe=   85 fps=1.1 q=56.0 size=       1KiB time=00:00:00.70 bitrate=   6.4kbits/s speed=0.00886x elapsed=0:01:19.01    \nframe=   86 fps=1.1 q=59.0 size=       1KiB time=00:00:00.70 bitrate=   6.3kbits/s speed=0.0089x elapsed=0:01:19.58    \nframe=   86 fps=1.1 q=59.0 size=       1KiB time=00:00:00.70 bitrate=   6.3kbits/s speed=0.00884x elapsed=0:01:20.15    \nframe=   87 fps=1.1 q=56.0 size=       1KiB time=00:00:00.71 bitrate=   6.3kbits/s speed=0.00888x elapsed=0:01:20.70    \nframe=   87 fps=1.1 q=56.0 size=       1KiB time=00:00:00.71 bitrate=   6.3kbits/s speed=0.00882x elapsed=0:01:21.25    \nframe=   88 fps=1.1 q=59.0 size=       1KiB time=00:00:00.72 bitrate=   6.2kbits/s speed=0.00886x elapsed=0:01:21.81    \nframe=   90 fps=1.1 q=60.0 size=       1KiB time=00:00:00.74 bitrate=   6.0kbits/s speed=0.009x elapsed=0:01:22.39    \nframe=   91 fps=1.1 q=58.0 size=       1KiB time=00:00:00.75 bitrate=   6.0kbits/s speed=0.00904x elapsed=0:01:22.97    \nframe=   92 fps=1.1 q=60.0 size=       1KiB time=00:00:00.75 bitrate=   5.9kbits/s speed=0.00908x elapsed=0:01:23.54    \nframe=   93 fps=1.1 q=55.0 size=       1KiB time=00:00:00.76 bitrate=   5.8kbits/s speed=0.00911x elapsed=0:01:24.11    \nframe=   95 fps=1.1 q=57.0 size=       1KiB time=00:00:00.78 bitrate=   5.7kbits/s speed=0.00925x elapsed=0:01:24.69    \nframe=   96 fps=1.1 q=59.0 size=       1KiB time=00:00:00.79 bitrate=   5.7kbits/s speed=0.00929x elapsed=0:01:25.25    \nframe=   98 fps=1.1 q=60.0 size=       1KiB time=00:00:00.80 bitrate=   5.5kbits/s speed=0.00942x elapsed=0:01:25.79    \nframe=   99 fps=1.1 q=59.0 size=       1KiB time=00:00:00.81 bitrate=   5.5kbits/s speed=0.00946x elapsed=0:01:26.35    \nframe=  100 fps=1.2 q=60.0 size=       1KiB time=00:00:00.82 bitrate=   5.4kbits/s speed=0.00949x elapsed=0:01:26.89    \nframe=  101 fps=1.2 q=57.0 size=       1KiB time=00:00:00.83 bitrate=   5.4kbits/s speed=0.00952x elapsed=0:01:27.49    \nframe=  102 fps=1.2 q=60.0 size=       1KiB time=00:00:00.84 bitrate=   5.3kbits/s speed=0.00956x elapsed=0:01:28.05    \nframe=  102 fps=1.2 q=60.0 size=       1KiB time=00:00:00.84 bitrate=   5.3kbits/s speed=0.0095x elapsed=0:01:28.60    \nframe=  103 fps=1.2 q=59.0 size=       1KiB time=00:00:00.85 bitrate=   5.3kbits/s speed=0.00953x elapsed=0:01:29.18    \nframe=  103 fps=1.1 q=59.0 size=       1KiB time=00:00:00.85 bitrate=   5.3kbits/s speed=0.00947x elapsed=0:01:29.73    \nframe=  104 fps=1.2 q=60.0 size=       1KiB time=00:00:00.85 bitrate=   5.2kbits/s speed=0.00951x elapsed=0:01:30.27    \nframe=  106 fps=1.2 q=60.0 size=       1KiB time=00:00:00.87 bitrate=   5.1kbits/s speed=0.00964x elapsed=0:01:30.81    \nframe=  107 fps=1.2 q=58.0 size=       1KiB time=00:00:00.88 bitrate=   5.1kbits/s speed=0.00967x elapsed=0:01:31.38    \nframe=  107 fps=1.2 q=58.0 size=       1KiB time=00:00:00.88 bitrate=   5.1kbits/s speed=0.0096x elapsed=0:01:31.97    \nframe=  108 fps=1.2 q=57.0 size=       1KiB time=00:00:00.89 bitrate=   5.0kbits/s speed=0.00963x elapsed=0:01:32.54    \nframe=  109 fps=1.2 q=54.0 size=       1KiB time=00:00:00.90 bitrate=   5.0kbits/s speed=0.00966x elapsed=0:01:33.13    \nframe=  111 fps=1.2 q=57.0 size=       1KiB time=00:00:00.91 bitrate=   4.9kbits/s speed=0.00978x elapsed=0:01:33.73    \nframe=  111 fps=1.2 q=57.0 size=       1KiB time=00:00:00.91 bitrate=   4.9kbits/s speed=0.00972x elapsed=0:01:34.32    \nframe=  112 fps=1.2 q=59.0 size=       1KiB time=00:00:00.92 bitrate=   4.8kbits/s speed=0.00975x elapsed=0:01:34.91    \nframe=  114 fps=1.2 q=60.0 size=       1KiB time=00:00:00.94 bitrate=   4.8kbits/s speed=0.00986x elapsed=0:01:35.49    \nframe=  115 fps=1.2 q=59.0 size=       1KiB time=00:00:00.95 bitrate=   4.7kbits/s speed=0.00989x elapsed=0:01:36.05    \nframe=  115 fps=1.2 q=59.0 size=       1KiB time=00:00:00.95 bitrate=   4.7kbits/s speed=0.00983x elapsed=0:01:36.63    \nframe=  116 fps=1.2 q=57.0 size=       1KiB time=00:00:00.95 bitrate=   4.7kbits/s speed=0.00986x elapsed=0:01:37.21    \nframe=  117 fps=1.2 q=57.0 size=       1KiB time=00:00:00.96 bitrate=   4.6kbits/s speed=0.00989x elapsed=0:01:37.78    \nframe=  118 fps=1.2 q=59.0 size=       1KiB time=00:00:00.97 bitrate=   4.6kbits/s speed=0.00992x elapsed=0:01:38.33    \nframe=  118 fps=1.2 q=59.0 size=       1KiB time=00:00:00.97 bitrate=   4.6kbits/s speed=0.00986x elapsed=0:01:38.88    \nframe=  119 fps=1.2 q=56.0 size=       1KiB time=00:00:00.98 bitrate=   4.6kbits/s speed=0.00989x elapsed=0:01:39.43    \nframe=  119 fps=1.2 q=56.0 size=       1KiB time=00:00:00.98 bitrate=   4.6kbits/s speed=0.00983x elapsed=0:01:40.03    \nframe=  120 fps=1.2 q=59.0 size=       1KiB time=00:00:00.99 bitrate=   4.5kbits/s speed=0.00986x elapsed=0:01:40.62    \nframe=  122 fps=1.2 q=60.0 size=       1KiB time=00:00:01.00 bitrate=   4.4kbits/s speed=0.00996x elapsed=0:01:41.20    \nframe=  123 fps=1.2 q=58.0 size=       1KiB time=00:00:01.00 bitrate=   4.4kbits/s speed=0.00991x elapsed=0:01:41.78    \nframe=  123 fps=1.2 q=58.0 size=       1KiB time=00:00:01.01 bitrate=   4.4kbits/s speed=0.00993x elapsed=0:01:42.37    \nframe=  124 fps=1.2 q=58.0 size=       1KiB time=00:00:01.02 bitrate=   4.4kbits/s speed=0.00996x elapsed=0:01:42.93    \nframe=  127 fps=1.2 q=58.0 size=       1KiB time=00:00:01.05 bitrate=   4.3kbits/s speed=0.0101x elapsed=0:01:43.50    \nframe=  128 fps=1.2 q=60.0 size=       1KiB time=00:00:01.05 bitrate=   4.2kbits/s speed=0.0102x elapsed=0:01:44.10    \nframe=  131 fps=1.3 q=60.0 size=       1KiB time=00:00:01.08 bitrate=   4.1kbits/s speed=0.0104x elapsed=0:01:44.66    \nframe=  132 fps=1.3 q=61.0 size=       1KiB time=00:00:01.08 bitrate=   4.1kbits/s speed=0.0103x elapsed=0:01:45.20    \nframe=  133 fps=1.3 q=58.0 size=       1KiB time=00:00:01.10 bitrate=   4.1kbits/s speed=0.0104x elapsed=0:01:45.75    \nframe=  134 fps=1.3 q=60.0 size=       1KiB time=00:00:01.10 bitrate=   4.0kbits/s speed=0.0104x elapsed=0:01:46.30    \nframe=  134 fps=1.3 q=60.0 size=       1KiB time=00:00:01.10 bitrate=   4.0kbits/s speed=0.0104x elapsed=0:01:46.87    \nframe=  135 fps=1.3 q=57.0 size=       1KiB time=00:00:01.11 bitrate=   4.0kbits/s speed=0.0104x elapsed=0:01:47.44    \nframe=  135 fps=1.2 q=57.0 size=       1KiB time=00:00:01.11 bitrate=   4.0kbits/s speed=0.0103x elapsed=0:01:48.02    \nframe=  138 fps=1.3 q=61.0 size=       1KiB time=00:00:01.14 bitrate=   3.9kbits/s speed=0.0105x elapsed=0:01:48.58    \nframe=  139 fps=1.3 q=59.0 size=       1KiB time=00:00:01.15 bitrate=   3.9kbits/s speed=0.0105x elapsed=0:01:49.15    \nframe=  141 fps=1.3 q=56.0 size=       1KiB time=00:00:01.16 bitrate=   3.8kbits/s speed=0.0106x elapsed=0:01:49.71    \nframe=  143 fps=1.3 q=59.0 size=       1KiB time=00:00:01.18 bitrate=   3.8kbits/s speed=0.0107x elapsed=0:01:50.27    \nframe=  145 fps=1.3 q=44.0 size=       1KiB time=00:00:01.20 bitrate=   3.7kbits/s speed=0.0108x elapsed=0:01:50.81    \nframe=  147 fps=1.3 q=61.0 size=       1KiB time=00:00:01.21 bitrate=   3.7kbits/s speed=0.0109x elapsed=0:01:51.36    \nframe=  148 fps=1.3 q=62.0 size=       1KiB time=00:00:01.22 bitrate=   3.7kbits/s speed=0.0109x elapsed=0:01:51.92    \nframe=  150 fps=1.3 q=62.0 size=       1KiB time=00:00:01.23 bitrate=   3.6kbits/s speed=0.011x elapsed=0:01:52.46    \nframe=  150 fps=1.3 q=62.0 size=       1KiB time=00:00:01.24 bitrate=   3.6kbits/s speed=0.011x elapsed=0:01:53.04    \nframe=  150 fps=1.3 q=62.0 size=       1KiB time=00:00:01.24 bitrate=   3.6kbits/s speed=0.0109x elapsed=0:01:53.61    \nframe=  151 fps=1.3 q=61.0 size=       1KiB time=00:00:01.25 bitrate=   3.6kbits/s speed=0.0109x elapsed=0:01:54.17    \nframe=  151 fps=1.3 q=61.0 size=       1KiB time=00:00:01.25 bitrate=   3.6kbits/s speed=0.0109x elapsed=0:01:54.72    \nframe=  154 fps=1.3 q=61.0 size=       1KiB time=00:00:01.26 bitrate=   3.5kbits/s speed=0.011x elapsed=0:01:55.25    \nframe=  155 fps=1.3 q=59.0 size=       1KiB time=00:00:01.28 bitrate=   3.5kbits/s speed=0.0111x elapsed=0:01:55.82    \nframe=  155 fps=1.3 q=59.0 size=       1KiB time=00:00:01.28 bitrate=   3.5kbits/s speed=0.011x elapsed=0:01:56.36    \nframe=  156 fps=1.3 q=59.0 size=       1KiB time=00:00:01.29 bitrate=   3.5kbits/s speed=0.011x elapsed=0:01:56.92    \nframe=  157 fps=1.3 q=56.0 size=       1KiB time=00:00:01.30 bitrate=   3.4kbits/s speed=0.0111x elapsed=0:01:57.49    \nframe=  159 fps=1.3 q=59.0 size=       1KiB time=00:00:01.31 bitrate=   3.4kbits/s speed=0.0111x elapsed=0:01:58.11    \nframe=  160 fps=1.3 q=61.0 size=       1KiB time=00:00:01.32 bitrate=   3.4kbits/s speed=0.0112x elapsed=0:01:58.68    \nframe=  162 fps=1.4 q=62.0 size=       1KiB time=00:00:01.33 bitrate=   3.4kbits/s speed=0.0112x elapsed=0:01:59.25    \nframe=  163 fps=1.4 q=61.0 size=       1KiB time=00:00:01.35 bitrate=   3.3kbits/s speed=0.0113x elapsed=0:01:59.86    \nframe=  163 fps=1.4 q=61.0 size=       1KiB time=00:00:01.35 bitrate=   3.3kbits/s speed=0.0112x elapsed=0:02:00.45    \nframe=  164 fps=1.4 q=62.0 size=       1KiB time=00:00:01.35 bitrate=   3.3kbits/s speed=0.0112x elapsed=0:02:01.02    \nframe=  166 fps=1.4 q=61.0 size=       1KiB time=00:00:01.37 bitrate=   3.3kbits/s speed=0.0113x elapsed=0:02:01.58    \nframe=  166 fps=1.4 q=61.0 size=       1KiB time=00:00:01.37 bitrate=   3.3kbits/s speed=0.0113x elapsed=0:02:02.15    \nframe=  167 fps=1.4 q=58.0 size=       1KiB time=00:00:01.38 bitrate=   3.2kbits/s speed=0.0113x elapsed=0:02:02.70    \nframe=  167 fps=1.4 q=58.0 size=       1KiB time=00:00:01.38 bitrate=   3.2kbits/s speed=0.0112x elapsed=0:02:03.27    \nframe=  168 fps=1.4 q=61.0 size=       1KiB time=00:00:01.39 bitrate=   3.2kbits/s speed=0.0112x elapsed=0:02:03.87    \nframe=  171 fps=1.4 q=60.0 size=       1KiB time=00:00:01.41 bitrate=   3.2kbits/s speed=0.0114x elapsed=0:02:04.46    \nframe=  171 fps=1.4 q=60.0 size=       1KiB time=00:00:01.41 bitrate=   3.2kbits/s speed=0.0113x elapsed=0:02:05.04    \nframe=  172 fps=1.4 q=62.0 size=       1KiB time=00:00:01.42 bitrate=   3.1kbits/s speed=0.0113x elapsed=0:02:05.64    \nframe=  174 fps=1.4 q=62.0 size=       1KiB time=00:00:01.44 bitrate=   3.1kbits/s speed=0.0114x elapsed=0:02:06.24    \nframe=  175 fps=1.4 q=60.0 size=       1KiB time=00:00:01.45 bitrate=   3.1kbits/s speed=0.0114x elapsed=0:02:06.82    \nframe=  176 fps=1.4 q=62.0 size=       1KiB time=00:00:01.45 bitrate=   3.1kbits/s speed=0.0114x elapsed=0:02:07.40    \nframe=  178 fps=1.4 q=63.0 size=       1KiB time=00:00:01.47 bitrate=   3.0kbits/s speed=0.0115x elapsed=0:02:07.99    \nframe=  180 fps=1.4 q=63.0 size=       1KiB time=00:00:01.49 bitrate=   3.0kbits/s speed=0.0116x elapsed=0:02:08.55    \nframe=  182 fps=1.4 q=63.0 size=       1KiB time=00:00:01.50 bitrate=   3.0kbits/s speed=0.0117x elapsed=0:02:09.10    \nframe=  182 fps=1.4 q=63.0 size=       1KiB time=00:00:01.50 bitrate=   3.0kbits/s speed=0.0116x elapsed=0:02:09.65    \nframe=  183 fps=1.4 q=62.0 size=       1KiB time=00:00:01.51 bitrate=   3.0kbits/s speed=0.0116x elapsed=0:02:10.20    \nframe=  185 fps=1.4 q=57.0 size=       1KiB time=00:00:01.53 bitrate=   2.9kbits/s speed=0.0117x elapsed=0:02:10.76    \nframe=  187 fps=1.4 q=61.0 size=       1KiB time=00:00:01.55 bitrate=   2.9kbits/s speed=0.0118x elapsed=0:02:11.35    \nframe=  187 fps=1.4 q=61.0 size=       1KiB time=00:00:01.55 bitrate=   2.9kbits/s speed=0.0117x elapsed=0:02:11.93    \nframe=  189 fps=1.4 q=58.0 size=       1KiB time=00:00:01.55 bitrate=   2.9kbits/s speed=0.0118x elapsed=0:02:12.50    \nframe=  190 fps=1.4 q=63.0 size=       1KiB time=00:00:01.57 bitrate=   2.8kbits/s speed=0.0118x elapsed=0:02:13.10    \nframe=  191 fps=1.4 q=61.0 size=       1KiB time=00:00:01.58 bitrate=   2.8kbits/s speed=0.0118x elapsed=0:02:13.71    \nframe=  193 fps=1.4 q=50.0 size=       1KiB time=00:00:01.60 bitrate=   2.8kbits/s speed=0.0119x elapsed=0:02:14.27    \nframe=  196 fps=1.5 q=63.0 size=       1KiB time=00:00:01.62 bitrate=   2.8kbits/s speed=0.0121x elapsed=0:02:14.82    \nframe=  198 fps=1.5 q=63.0 size=       1KiB time=00:00:01.64 bitrate=   2.7kbits/s speed=0.0121x elapsed=0:02:15.35    \nframe=  199 fps=1.5 q=63.0 size=       1KiB time=00:00:01.65 bitrate=   2.7kbits/s speed=0.0121x elapsed=0:02:15.92    \nframe=  201 fps=1.5 q=58.0 size=       1KiB time=00:00:01.65 bitrate=   2.7kbits/s speed=0.0121x elapsed=0:02:16.50    \nframe=  203 fps=1.5 q=62.0 size=       1KiB time=00:00:01.68 bitrate=   2.7kbits/s speed=0.0123x elapsed=0:02:17.05    \nframe=  205 fps=1.5 q=59.0 size=       1KiB time=00:00:01.70 bitrate=   2.6kbits/s speed=0.0124x elapsed=0:02:17.62    \nframe=  207 fps=1.5 q=62.0 size=       1KiB time=00:00:01.71 bitrate=   2.6kbits/s speed=0.0124x elapsed=0:02:18.19    \nframe=  209 fps=1.5 q=52.0 size=       1KiB time=00:00:01.73 bitrate=   2.6kbits/s speed=0.0125x elapsed=0:02:18.74    \nframe=  210 fps=1.5 q=63.0 size=       1KiB time=00:00:01.74 bitrate=   2.6kbits/s speed=0.0125x elapsed=0:02:19.32    \nframe=  211 fps=1.5 q=63.0 size=       1KiB time=00:00:01.75 bitrate=   2.6kbits/s speed=0.0125x elapsed=0:02:19.88    \nframe=  214 fps=1.5 q=63.0 size=       1KiB time=00:00:01.77 bitrate=   2.5kbits/s speed=0.0126x elapsed=0:02:20.43    \nframe=  214 fps=1.5 q=63.0 size=       1KiB time=00:00:01.77 bitrate=   2.5kbits/s speed=0.0126x elapsed=0:02:20.97    \nframe=  214 fps=1.5 q=63.0 size=       1KiB time=00:00:01.77 bitrate=   2.5kbits/s speed=0.0125x elapsed=0:02:21.50    \nframe=  215 fps=1.5 q=63.0 size=       1KiB time=00:00:01.78 bitrate=   2.5kbits/s speed=0.0126x elapsed=0:02:22.05    \nframe=  216 fps=1.5 q=63.0 size=       1KiB time=00:00:01.79 bitrate=   2.5kbits/s speed=0.0126x elapsed=0:02:22.59    \nframe=  218 fps=1.5 q=63.0 size=       1KiB time=00:00:01.80 bitrate=   2.5kbits/s speed=0.0126x elapsed=0:02:23.14    \nframe=  220 fps=1.5 q=63.0 size=       1KiB time=00:00:01.82 bitrate=   2.5kbits/s speed=0.0127x elapsed=0:02:23.68    \nframe=  221 fps=1.5 q=59.0 size=       1KiB time=00:00:01.83 bitrate=   2.4kbits/s speed=0.0127x elapsed=0:02:24.23    \nframe=  224 fps=1.5 q=63.0 size=       1KiB time=00:00:01.85 bitrate=   2.4kbits/s speed=0.0128x elapsed=0:02:24.77    \nframe=  226 fps=1.6 q=63.0 size=       1KiB time=00:00:01.87 bitrate=   2.4kbits/s speed=0.0129x elapsed=0:02:25.31    \nframe=  227 fps=1.6 q=63.0 size=       1KiB time=00:00:01.88 bitrate=   2.4kbits/s speed=0.0129x elapsed=0:02:25.85    \nframe=  229 fps=1.6 q=62.0 size=       1KiB time=00:00:01.90 bitrate=   2.4kbits/s speed=0.013x elapsed=0:02:26.45    \nframe=  230 fps=1.6 q=63.0 size=       1KiB time=00:00:01.90 bitrate=   2.3kbits/s speed=0.013x elapsed=0:02:27.07    \nframe=  230 fps=1.6 q=63.0 size=       1KiB time=00:00:01.90 bitrate=   2.3kbits/s speed=0.0129x elapsed=0:02:27.65    \nframe=  230 fps=1.6 q=63.0 size=       1KiB time=00:00:01.90 bitrate=   2.3kbits/s speed=0.0129x elapsed=0:02:28.25    \nframe=  231 fps=1.6 q=63.0 size=       1KiB time=00:00:01.91 bitrate=   2.3kbits/s speed=0.0129x elapsed=0:02:28.84    \nframe=  232 fps=1.6 q=59.0 size=       1KiB time=00:00:01.92 bitrate=   2.3kbits/s speed=0.0129x elapsed=0:02:29.44    \nframe=  233 fps=1.6 q=59.0 size=       1KiB time=00:00:01.93 bitrate=   2.3kbits/s speed=0.0129x elapsed=0:02:30.02    \nframe=  235 fps=1.6 q=62.0 size=       1KiB time=00:00:01.95 bitrate=   2.3kbits/s speed=0.0129x elapsed=0:02:30.61    \nframe=  237 fps=1.6 q=59.0 size=       1KiB time=00:00:01.95 bitrate=   2.3kbits/s speed=0.0129x elapsed=0:02:31.28    \nframe=  240 fps=1.6 q=63.0 size=       1KiB time=00:00:01.99 bitrate=   2.2kbits/s speed=0.0131x elapsed=0:02:32.05    \nframe=  241 fps=1.6 q=54.0 size=       1KiB time=00:00:02.00 bitrate=   2.2kbits/s speed=0.0131x elapsed=0:02:32.57    \nframe=  245 fps=1.6 q=62.0 size=       1KiB time=00:00:02.03 bitrate=   2.2kbits/s speed=0.0133x elapsed=0:02:33.11    \nframe=  246 fps=1.6 q=63.0 size=       1KiB time=00:00:02.04 bitrate=   2.2kbits/s speed=0.0133x elapsed=0:02:33.63    \nframe=  247 fps=1.6 q=63.0 size=       1KiB time=00:00:02.05 bitrate=   2.2kbits/s speed=0.0133x elapsed=0:02:34.15    \nframe=  249 fps=1.6 q=59.0 size=       1KiB time=00:00:02.06 bitrate=   2.2kbits/s speed=0.0134x elapsed=0:02:34.73    \nframe=  251 fps=1.6 q=62.0 size=       1KiB time=00:00:02.08 bitrate=   2.2kbits/s speed=0.0134x elapsed=0:02:35.25    \nframe=  254 fps=1.6 q=63.0 size=       1KiB time=00:00:02.10 bitrate=   2.1kbits/s speed=0.0135x elapsed=0:02:35.82    \nframe=  258 fps=1.6 q=63.0 size=       1KiB time=00:00:02.14 bitrate=   2.1kbits/s speed=0.0137x elapsed=0:02:36.39    \nframe=  261 fps=1.7 q=62.0 size=       1KiB time=00:00:02.16 bitrate=   2.1kbits/s speed=0.0138x elapsed=0:02:36.97    \nframe=  262 fps=1.7 q=63.0 size=       1KiB time=00:00:02.17 bitrate=   2.1kbits/s speed=0.0138x elapsed=0:02:37.56    \nframe=  263 fps=1.7 q=63.0 size=       1KiB time=00:00:02.17 bitrate=   2.1kbits/s speed=0.0138x elapsed=0:02:38.10    \nframe=  264 fps=1.7 q=59.0 size=       1KiB time=00:00:02.19 bitrate=   2.0kbits/s speed=0.0138x elapsed=0:02:38.63    \nframe=  267 fps=1.7 q=62.0 size=       1KiB time=00:00:02.21 bitrate=   2.0kbits/s speed=0.0139x elapsed=0:02:39.15    \nframe=  270 fps=1.7 q=63.0 size=       1KiB time=00:00:02.24 bitrate=   2.0kbits/s speed=0.014x elapsed=0:02:39.68    \nframe=  272 fps=1.7 q=63.0 size=       1KiB time=00:00:02.25 bitrate=   2.0kbits/s speed=0.0141x elapsed=0:02:40.39    \nframe=  275 fps=1.7 q=63.0 size=       1KiB time=00:00:02.28 bitrate=   2.0kbits/s speed=0.0142x elapsed=0:02:41.02    \nframe=  278 fps=1.7 q=63.0 size=       1KiB time=00:00:02.30 bitrate=   1.9kbits/s speed=0.0143x elapsed=0:02:41.54    \nframe=  279 fps=1.7 q=63.0 size=       1KiB time=00:00:02.31 bitrate=   1.9kbits/s speed=0.0143x elapsed=0:02:42.10    \nframe=  280 fps=1.7 q=63.0 size=       1KiB time=00:00:02.32 bitrate=   1.9kbits/s speed=0.0143x elapsed=0:02:42.71    \nframe=  282 fps=1.7 q=63.0 size=       1KiB time=00:00:02.34 bitrate=   1.9kbits/s speed=0.0143x elapsed=0:02:43.35    \nframe=  286 fps=1.7 q=63.0 size=       1KiB time=00:00:02.37 bitrate=   1.9kbits/s speed=0.0145x elapsed=0:02:43.87    \nframe=  288 fps=1.8 q=63.0 size=       1KiB time=00:00:02.39 bitrate=   1.9kbits/s speed=0.0145x elapsed=0:02:44.39    \nframe=  289 fps=1.8 q=53.0 size=       1KiB time=00:00:02.40 bitrate=   1.9kbits/s speed=0.0146x elapsed=0:02:44.93    \nframe=  290 fps=1.8 q=63.0 size=       1KiB time=00:00:02.40 bitrate=   1.9kbits/s speed=0.0146x elapsed=0:02:45.45    \nframe=  294 fps=1.8 q=63.0 size=       1KiB time=00:00:02.44 bitrate=   1.8kbits/s speed=0.0147x elapsed=0:02:45.97    \nframe=  295 fps=1.8 q=63.0 size=       1KiB time=00:00:02.45 bitrate=   1.8kbits/s speed=0.0147x elapsed=0:02:46.53    \nframe=  297 fps=1.8 q=59.0 size=       1KiB time=00:00:02.46 bitrate=   1.8kbits/s speed=0.0148x elapsed=0:02:47.07    \nframe=  299 fps=1.8 q=63.0 size=       1KiB time=00:00:02.48 bitrate=   1.8kbits/s speed=0.0148x elapsed=0:02:47.60    \nframe=  301 fps=1.8 q=62.0 size=       1KiB time=00:00:02.50 bitrate=   1.8kbits/s speed=0.0149x elapsed=0:02:48.19    \nframe=  303 fps=1.8 q=61.0 size=       1KiB time=00:00:02.51 bitrate=   1.8kbits/s speed=0.0149x elapsed=0:02:48.71    \nframe=  307 fps=1.8 q=63.0 size=       1KiB time=00:00:02.55 bitrate=   1.8kbits/s speed=0.0151x elapsed=0:02:49.31    \nframe=  309 fps=1.8 q=61.0 size=       1KiB time=00:00:02.56 bitrate=   1.7kbits/s speed=0.0151x elapsed=0:02:49.85    \nframe=  311 fps=1.8 q=59.0 size=       1KiB time=00:00:02.57 bitrate=   1.7kbits/s speed=0.0151x elapsed=0:02:50.39    \nframe=  312 fps=1.8 q=62.0 size=       1KiB time=00:00:02.59 bitrate=   1.7kbits/s speed=0.0152x elapsed=0:02:51.03    \nframe=  313 fps=1.8 q=58.0 size=       1KiB time=00:00:02.60 bitrate=   1.7kbits/s speed=0.0152x elapsed=0:02:51.54    \nframe=  315 fps=1.8 q=61.0 size=       1KiB time=00:00:02.61 bitrate=   1.7kbits/s speed=0.0152x elapsed=0:02:52.06    \nframe=  317 fps=1.8 q=58.0 size=       1KiB time=00:00:02.63 bitrate=   1.7kbits/s speed=0.0153x elapsed=0:02:52.57    \nframe=  320 fps=1.8 q=63.0 size=       1KiB time=00:00:02.65 bitrate=   1.7kbits/s speed=0.0154x elapsed=0:02:53.09    \nframe=  323 fps=1.9 q=63.0 size=       1KiB time=00:00:02.68 bitrate=   1.7kbits/s speed=0.0155x elapsed=0:02:53.60    \nframe=  327 fps=1.9 q=59.0 size=       1KiB time=00:00:02.71 bitrate=   1.6kbits/s speed=0.0156x elapsed=0:02:54.12    \nframe=  328 fps=1.9 q=63.0 size=       1KiB time=00:00:02.72 bitrate=   1.6kbits/s speed=0.0156x elapsed=0:02:54.63    \nframe=  331 fps=1.9 q=61.0 size=       1KiB time=00:00:02.75 bitrate=   1.6kbits/s speed=0.0157x elapsed=0:02:55.15    \nframe=  332 fps=1.9 q=63.0 size=       1KiB time=00:00:02.75 bitrate=   1.6kbits/s speed=0.0157x elapsed=0:02:55.67    \nframe=  335 fps=1.9 q=61.0 size=       1KiB time=00:00:02.78 bitrate=   1.6kbits/s speed=0.0158x elapsed=0:02:56.19    \nframe=  338 fps=1.9 q=63.0 size=       1KiB time=00:00:02.80 bitrate=   1.6kbits/s speed=0.0159x elapsed=0:02:56.71    \nframe=  342 fps=1.9 q=63.0 size=       1KiB time=00:00:02.84 bitrate=   1.6kbits/s speed=0.016x elapsed=0:02:57.21    \nframe=  343 fps=1.9 q=63.0 size=       1KiB time=00:00:02.85 bitrate=   1.6kbits/s speed=0.016x elapsed=0:02:57.72    \nframe=  343 fps=1.9 q=63.0 size=       1KiB time=00:00:02.85 bitrate=   1.6kbits/s speed=0.016x elapsed=0:02:58.25    \nframe=  345 fps=1.9 q=58.0 size=       1KiB time=00:00:02.86 bitrate=   1.6kbits/s speed=0.016x elapsed=0:02:58.76    \nframe=  346 fps=1.9 q=63.0 size=       1KiB time=00:00:02.87 bitrate=   1.6kbits/s speed=0.016x elapsed=0:02:59.27    \nframe=  350 fps=1.9 q=63.0 size=       1KiB time=00:00:02.90 bitrate=   1.5kbits/s speed=0.0162x elapsed=0:02:59.79    \nframe=  351 fps=1.9 q=61.0 size=       1KiB time=00:00:02.91 bitrate=   1.5kbits/s speed=0.0162x elapsed=0:03:00.30    \nframe=  353 fps=2.0 q=52.0 size=       1KiB time=00:00:02.93 bitrate=   1.5kbits/s speed=0.0162x elapsed=0:03:00.82    \nframe=  355 fps=2.0 q=63.0 size=       1KiB time=00:00:02.95 bitrate=   1.5kbits/s speed=0.0163x elapsed=0:03:01.34    \nframe=  358 fps=2.0 q=63.0 size=       1KiB time=00:00:02.97 bitrate=   1.5kbits/s speed=0.0164x elapsed=0:03:01.85    \nframe=  359 fps=2.0 q=63.0 size=       1KiB time=00:00:02.98 bitrate=   1.5kbits/s speed=0.0164x elapsed=0:03:02.37    \nframe=  361 fps=2.0 q=58.0 size=       1KiB time=00:00:03.00 bitrate=   1.5kbits/s speed=0.0164x elapsed=0:03:02.89    \nframe=  364 fps=2.0 q=63.0 size=       1KiB time=00:00:03.02 bitrate=   1.5kbits/s speed=0.0165x elapsed=0:03:03.40    \nframe=  366 fps=2.0 q=63.0 size=       1KiB time=00:00:03.04 bitrate=   1.5kbits/s speed=0.0165x elapsed=0:03:03.92    \nframe=  366 fps=2.0 q=63.0 size=       1KiB time=00:00:03.04 bitrate=   1.5kbits/s speed=0.0165x elapsed=0:03:04.44    \nframe=  369 fps=2.0 q=52.0 size=       1KiB time=00:00:03.06 bitrate=   1.5kbits/s speed=0.0166x elapsed=0:03:04.95    \nframe=  371 fps=2.0 q=63.0 size=       1KiB time=00:00:03.08 bitrate=   1.5kbits/s speed=0.0166x elapsed=0:03:05.47    \nframe=  374 fps=2.0 q=63.0 size=       1KiB time=00:00:03.10 bitrate=   1.4kbits/s speed=0.0167x elapsed=0:03:05.99    \nframe=  375 fps=2.0 q=59.0 size=       1KiB time=00:00:03.11 bitrate=   1.4kbits/s speed=0.0167x elapsed=0:03:06.51    \nframe=  377 fps=2.0 q=59.0 size=       1KiB time=00:00:03.13 bitrate=   1.4kbits/s speed=0.0168x elapsed=0:03:07.03    \nframe=  380 fps=2.0 q=63.0 size=       1KiB time=00:00:03.15 bitrate=   1.4kbits/s speed=0.0168x elapsed=0:03:07.55    \nframe=  382 fps=2.0 q=63.0 size=       1KiB time=00:00:03.17 bitrate=   1.4kbits/s speed=0.0169x elapsed=0:03:08.06    \nframe=  386 fps=2.0 q=63.0 size=       1KiB time=00:00:03.20 bitrate=   1.4kbits/s speed=0.017x elapsed=0:03:08.57    \nframe=  387 fps=2.0 q=63.0 size=       1KiB time=00:00:03.21 bitrate=   1.4kbits/s speed=0.017x elapsed=0:03:09.09    \nframe=  388 fps=2.0 q=63.0 size=       1KiB time=00:00:03.22 bitrate=   1.4kbits/s speed=0.017x elapsed=0:03:09.61    \nframe=  390 fps=2.1 q=63.0 size=       1KiB time=00:00:03.24 bitrate=   1.4kbits/s speed=0.0171x elapsed=0:03:10.12    \nframe=  390 fps=2.0 q=63.0 size=       1KiB time=00:00:03.24 bitrate=   1.4kbits/s speed=0.017x elapsed=0:03:10.63    \nframe=  391 fps=2.0 q=59.0 size=       1KiB time=00:00:03.25 bitrate=   1.4kbits/s speed=0.017x elapsed=0:03:11.15    \nframe=  394 fps=2.1 q=63.0 size=       1KiB time=00:00:03.27 bitrate=   1.4kbits/s speed=0.0171x elapsed=0:03:11.66    \nframe=  395 fps=2.1 q=62.0 size=       1KiB time=00:00:03.28 bitrate=   1.4kbits/s speed=0.0171x elapsed=0:03:12.19    \nframe=  398 fps=2.1 q=63.0 size=       1KiB time=00:00:03.30 bitrate=   1.4kbits/s speed=0.0172x elapsed=0:03:12.70    \nframe=  400 fps=2.1 q=63.0 size=       1KiB time=00:00:03.32 bitrate=   1.3kbits/s speed=0.0172x elapsed=0:03:13.22    \nframe=  401 fps=2.1 q=54.0 size=       1KiB time=00:00:03.33 bitrate=   1.3kbits/s speed=0.0172x elapsed=0:03:13.73    \nframe=  405 fps=2.1 q=62.0 size=       1KiB time=00:00:03.36 bitrate=   1.3kbits/s speed=0.0173x elapsed=0:03:14.25    \nframe=  406 fps=2.1 q=63.0 size=       1KiB time=00:00:03.37 bitrate=   1.3kbits/s speed=0.0173x elapsed=0:03:14.77    \nframe=  408 fps=2.1 q=63.0 size=       1KiB time=00:00:03.39 bitrate=   1.3kbits/s speed=0.0174x elapsed=0:03:15.28    \nframe=  411 fps=2.1 q=61.0 size=       1KiB time=00:00:03.41 bitrate=   1.3kbits/s speed=0.0174x elapsed=0:03:15.79    \nframe=  414 fps=2.1 q=63.0 size=       1KiB time=00:00:03.44 bitrate=   1.3kbits/s speed=0.0175x elapsed=0:03:16.31    \nframe=  415 fps=2.1 q=61.0 size=       1KiB time=00:00:03.45 bitrate=   1.3kbits/s speed=0.0175x elapsed=0:03:16.86    \nframe=  418 fps=2.1 q=63.0 size=       1KiB time=00:00:03.47 bitrate=   1.3kbits/s speed=0.0176x elapsed=0:03:17.38    \nframe=  419 fps=2.1 q=63.0 size=       1KiB time=00:00:03.48 bitrate=   1.3kbits/s speed=0.0176x elapsed=0:03:17.96    \nframe=  420 fps=2.1 q=63.0 size=       1KiB time=00:00:03.49 bitrate=   1.3kbits/s speed=0.0176x elapsed=0:03:18.50    \nframe=  422 fps=2.1 q=63.0 size=       1KiB time=00:00:03.50 bitrate=   1.3kbits/s speed=0.0176x elapsed=0:03:19.01    \nframe=  423 fps=2.1 q=59.0 size=       1KiB time=00:00:03.51 bitrate=   1.3kbits/s speed=0.0176x elapsed=0:03:19.52    \nframe=  426 fps=2.1 q=63.0 size=       1KiB time=00:00:03.54 bitrate=   1.3kbits/s speed=0.0177x elapsed=0:03:20.04    \nframe=  428 fps=2.1 q=63.0 size=       1KiB time=00:00:03.55 bitrate=   1.3kbits/s speed=0.0177x elapsed=0:03:20.56    \nframe=  430 fps=2.1 q=63.0 size=       1KiB time=00:00:03.57 bitrate=   1.3kbits/s speed=0.0178x elapsed=0:03:21.07    \nframe=  432 fps=2.1 q=63.0 size=       1KiB time=00:00:03.59 bitrate=   1.2kbits/s speed=0.0178x elapsed=0:03:21.59    \nframe=  437 fps=2.2 q=62.0 size=       1KiB time=00:00:03.63 bitrate=   1.2kbits/s speed=0.018x elapsed=0:03:22.10    \nframe=  438 fps=2.2 q=63.0 size=       1KiB time=00:00:03.64 bitrate=   1.2kbits/s speed=0.018x elapsed=0:03:22.63    \nframe=  439 fps=2.2 q=63.0 size=       1KiB time=00:00:03.65 bitrate=   1.2kbits/s speed=0.018x elapsed=0:03:23.14    \nframe=  440 fps=2.2 q=63.0 size=       1KiB time=00:00:03.65 bitrate=   1.2kbits/s speed=0.018x elapsed=0:03:23.66    \nframe=  442 fps=2.2 q=63.0 size=       1KiB time=00:00:03.67 bitrate=   1.2kbits/s speed=0.018x elapsed=0:03:24.16    \nframe=  443 fps=2.2 q=61.0 size=       1KiB time=00:00:03.68 bitrate=   1.2kbits/s speed=0.018x elapsed=0:03:24.69    \nframe=  444 fps=2.2 q=63.0 size=       1KiB time=00:00:03.69 bitrate=   1.2kbits/s speed=0.018x elapsed=0:03:25.20    \nframe=  446 fps=2.2 q=63.0 size=       1KiB time=00:00:03.70 bitrate=   1.2kbits/s speed=0.018x elapsed=0:03:25.71    \nframe=  449 fps=2.2 q=53.0 size=       1KiB time=00:00:03.73 bitrate=   1.2kbits/s speed=0.0181x elapsed=0:03:26.24    \nframe=  453 fps=2.2 q=61.0 size=       1KiB time=00:00:03.76 bitrate=   1.2kbits/s speed=0.0182x elapsed=0:03:26.75    \nframe=  454 fps=2.2 q=63.0 size=       1KiB time=00:00:03.77 bitrate=   1.2kbits/s speed=0.0182x elapsed=0:03:27.27    \nframe=  455 fps=2.2 q=63.0 size=       1KiB time=00:00:03.78 bitrate=   1.2kbits/s speed=0.0182x elapsed=0:03:27.77    \nframe=  455 fps=2.2 q=63.0 size=       1KiB time=00:00:03.78 bitrate=   1.2kbits/s speed=0.0182x elapsed=0:03:28.30    \nframe=  456 fps=2.2 q=63.0 size=       1KiB time=00:00:03.79 bitrate=   1.2kbits/s speed=0.0182x elapsed=0:03:28.81    \nframe=  459 fps=2.2 q=61.0 size=       1KiB time=00:00:03.81 bitrate=   1.2kbits/s speed=0.0182x elapsed=0:03:29.33    \nframe=  460 fps=2.2 q=63.0 size=       1KiB time=00:00:03.82 bitrate=   1.2kbits/s speed=0.0182x elapsed=0:03:29.84    \nframe=  463 fps=2.2 q=61.0 size=       1KiB time=00:00:03.85 bitrate=   1.2kbits/s speed=0.0183x elapsed=0:03:30.35    \nframe=  465 fps=2.2 q=52.0 size=       1KiB time=00:00:03.86 bitrate=   1.2kbits/s speed=0.0183x elapsed=0:03:30.87    \nframe=  467 fps=2.2 q=63.0 size=       1KiB time=00:00:03.88 bitrate=   1.2kbits/s speed=0.0184x elapsed=0:03:31.38    \nframe=  470 fps=2.2 q=63.0 size=       1KiB time=00:00:03.90 bitrate=   1.1kbits/s speed=0.0184x elapsed=0:03:31.90    \nframe=  471 fps=2.2 q=59.0 size=       1KiB time=00:00:03.91 bitrate=   1.1kbits/s speed=0.0184x elapsed=0:03:32.42    \nframe=  474 fps=2.2 q=63.0 size=       1KiB time=00:00:03.94 bitrate=   1.1kbits/s speed=0.0185x elapsed=0:03:32.94    \nframe=  475 fps=2.2 q=61.0 size=       1KiB time=00:00:03.95 bitrate=   1.1kbits/s speed=0.0185x elapsed=0:03:33.45    \nframe=  478 fps=2.2 q=63.0 size=       1KiB time=00:00:03.97 bitrate=   1.1kbits/s speed=0.0186x elapsed=0:03:33.97    \nframe=  480 fps=2.2 q=63.0 size=       1KiB time=00:00:03.99 bitrate=   1.1kbits/s speed=0.0186x elapsed=0:03:34.48    \nframe=  483 fps=2.2 q=63.0 size=       1KiB time=00:00:04.01 bitrate=   1.1kbits/s speed=0.0187x elapsed=0:03:34.99    \nframe=  483 fps=2.2 q=63.0 size=       1KiB time=00:00:04.01 bitrate=   1.1kbits/s speed=0.0186x elapsed=0:03:35.51    \nframe=  486 fps=2.2 q=63.0 size=       1KiB time=00:00:04.04 bitrate=   1.1kbits/s speed=0.0187x elapsed=0:03:36.03    \nframe=  487 fps=2.2 q=59.0 size=       1KiB time=00:00:04.05 bitrate=   1.1kbits/s speed=0.0187x elapsed=0:03:36.54    \nframe=  487 fps=2.2 q=59.0 size=       1KiB time=00:00:04.05 bitrate=   1.1kbits/s speed=0.0187x elapsed=0:03:37.06    \nframe=  489 fps=2.2 q=58.0 size=       1KiB time=00:00:04.06 bitrate=   1.1kbits/s speed=0.0187x elapsed=0:03:37.57    \nframe=  491 fps=2.3 q=61.0 size=       1KiB time=00:00:04.08 bitrate=   1.1kbits/s speed=0.0187x elapsed=0:03:38.09    \nframe=  495 fps=2.3 q=61.0 size=       1KiB time=00:00:04.11 bitrate=   1.1kbits/s speed=0.0188x elapsed=0:03:38.61    \nframe=  498 fps=2.3 q=63.0 size=       1KiB time=00:00:04.14 bitrate=   1.1kbits/s speed=0.0189x elapsed=0:03:39.13    \nframe=  499 fps=2.3 q=63.0 size=       1KiB time=00:00:04.15 bitrate=   1.1kbits/s speed=0.0189x elapsed=0:03:39.64    \nframe=  501 fps=2.3 q=61.0 size=       1KiB time=00:00:04.16 bitrate=   1.1kbits/s speed=0.0189x elapsed=0:03:40.16    \nframe=  502 fps=2.3 q=63.0 size=       1KiB time=00:00:04.17 bitrate=   1.1kbits/s speed=0.0189x elapsed=0:03:40.69    \nframe=  505 fps=2.3 q=58.0 size=       1KiB time=00:00:04.20 bitrate=   1.1kbits/s speed=0.019x elapsed=0:03:41.19    \nframe=  509 fps=2.3 q=58.0 size=       1KiB time=00:00:04.23 bitrate=   1.1kbits/s speed=0.0191x elapsed=0:03:41.72    \nframe=  513 fps=2.3 q=52.0 size=       1KiB time=00:00:04.26 bitrate=   1.0kbits/s speed=0.0192x elapsed=0:03:42.23    \nframe=  513 fps=2.3 q=52.0 size=       1KiB time=00:00:04.26 bitrate=   1.0kbits/s speed=0.0192x elapsed=0:03:42.75    \nframe=  517 fps=2.3 q=61.0 size=       1KiB time=00:00:04.30 bitrate=   1.0kbits/s speed=0.0193x elapsed=0:03:43.27    \nframe=  517 fps=2.3 q=61.0 size=       1KiB time=00:00:04.30 bitrate=   1.0kbits/s speed=0.0192x elapsed=0:03:43.80    \nframe=  519 fps=2.3 q=63.0 size=       1KiB time=00:00:04.31 bitrate=   1.0kbits/s speed=0.0192x elapsed=0:03:44.32    \nframe=  521 fps=2.3 q=58.0 size=       1KiB time=00:00:04.33 bitrate=   1.0kbits/s speed=0.0193x elapsed=0:03:44.84    \nframe=  521 fps=2.3 q=58.0 size=       1KiB time=00:00:04.33 bitrate=   1.0kbits/s speed=0.0192x elapsed=0:03:45.36    \nframe=  523 fps=2.3 q=61.0 size=       1KiB time=00:00:04.35 bitrate=   1.0kbits/s speed=0.0193x elapsed=0:03:45.88    \nframe=  525 fps=2.3 q=58.0 size=       1KiB time=00:00:04.36 bitrate=   1.0kbits/s speed=0.0193x elapsed=0:03:46.39    \nframe=  525 fps=2.3 q=58.0 size=       1KiB time=00:00:04.36 bitrate=   1.0kbits/s speed=0.0192x elapsed=0:03:46.90    \nframe=  527 fps=2.3 q=61.0 size=       1KiB time=00:00:04.38 bitrate=   1.0kbits/s speed=0.0193x elapsed=0:03:47.43    \nframe=  535 fps=2.3 q=63.0 size=       1KiB time=00:00:04.45 bitrate=   1.0kbits/s speed=0.0195x elapsed=0:03:47.93    \nframe=  537 fps=2.4 q=58.0 size=       1KiB time=00:00:04.46 bitrate=   1.0kbits/s speed=0.0196x elapsed=0:03:48.45    \nframe=  539 fps=2.4 q=61.0 size=       1KiB time=00:00:04.48 bitrate=   1.0kbits/s speed=0.0196x elapsed=0:03:48.97    \nframe=  541 fps=2.4 q=58.0 size=       1KiB time=00:00:04.50 bitrate=   1.0kbits/s speed=0.0196x elapsed=0:03:49.47    \nframe=  545 fps=2.4 q=52.0 size=       1KiB time=00:00:04.53 bitrate=   1.0kbits/s speed=0.0197x elapsed=0:03:50.30    \nframe=  547 fps=2.4 q=63.0 size=       1KiB time=00:00:04.55 bitrate=   1.0kbits/s speed=0.0197x elapsed=0:03:50.82    \nframe=  549 fps=2.4 q=61.0 size=       1KiB time=00:00:04.56 bitrate=   1.0kbits/s speed=0.0197x elapsed=0:03:51.34    \nframe=  549 fps=2.4 q=61.0 size=       1KiB time=00:00:04.56 bitrate=   1.0kbits/s speed=0.0197x elapsed=0:03:51.86    \nframe=  553 fps=2.4 q=58.0 size=       1KiB time=00:00:04.60 bitrate=   1.0kbits/s speed=0.0198x elapsed=0:03:52.37    \nframe=  553 fps=2.4 q=58.0 size=       1KiB time=00:00:04.60 bitrate=   1.0kbits/s speed=0.0198x elapsed=0:03:52.88    \nframe=  557 fps=2.4 q=59.0 size=       1KiB time=00:00:04.63 bitrate=   1.0kbits/s speed=0.0199x elapsed=0:03:53.40    \nframe=  559 fps=2.4 q=62.0 size=       1KiB time=00:00:04.65 bitrate=   1.0kbits/s speed=0.0199x elapsed=0:03:53.91    \nframe=  563 fps=2.4 q=63.0 size=       1KiB time=00:00:04.68 bitrate=   1.0kbits/s speed=0.02x elapsed=0:03:54.43    \nframe=  567 fps=2.4 q=63.0 size=       1KiB time=00:00:04.71 bitrate=   0.9kbits/s speed=0.0201x elapsed=0:03:54.95    \nframe=  569 fps=2.4 q=59.0 size=       1KiB time=00:00:04.73 bitrate=   0.9kbits/s speed=0.0201x elapsed=0:03:55.46    \nframe=  569 fps=2.4 q=59.0 size=       1KiB time=00:00:04.73 bitrate=   0.9kbits/s speed=0.0201x elapsed=0:03:55.98    \nframe=  573 fps=2.4 q=60.0 size=       1KiB time=00:00:04.76 bitrate=   0.9kbits/s speed=0.0202x elapsed=0:03:56.50    \nframe=  575 fps=2.4 q=63.0 size=       1KiB time=00:00:04.78 bitrate=   0.9kbits/s speed=0.0202x elapsed=0:03:57.01    \nframe=  579 fps=2.4 q=63.0 size=       1KiB time=00:00:04.81 bitrate=   0.9kbits/s speed=0.0203x elapsed=0:03:57.53    \nframe=  581 fps=2.4 q=63.0 size=       1KiB time=00:00:04.83 bitrate=   0.9kbits/s speed=0.0203x elapsed=0:03:58.05    \nframe=  583 fps=2.4 q=63.0 size=       1KiB time=00:00:04.85 bitrate=   0.9kbits/s speed=0.0203x elapsed=0:03:58.55    \nframe=  585 fps=2.4 q=63.0 size=       1KiB time=00:00:04.86 bitrate=   0.9kbits/s speed=0.0204x elapsed=0:03:59.07    \nframe=  585 fps=2.4 q=63.0 size=       1KiB time=00:00:04.86 bitrate=   0.9kbits/s speed=0.0203x elapsed=0:03:59.59    \nframe=  589 fps=2.5 q=63.0 size=       1KiB time=00:00:04.90 bitrate=   0.9kbits/s speed=0.0204x elapsed=0:04:00.10    \n[out#0/matroska @ 000002010a279200] video:932KiB audio:0KiB subtitle:0KiB other streams:0KiB global headers:0KiB muxing overhead: 0.347746%\nframe=  600 fps=2.5 q=63.0 Lsize=     936KiB time=00:00:04.99 bitrate=1535.4kbits/s speed=0.0208x elapsed=0:04:00.15    \n",
  "seconds": 242.9984107017517,
  "probe_out": {}
}